<svg id="svg" version="1.1" xmlns="http://www.w3.org/2000/svg" xmlns:xlink="http://www.w3.org/1999/xlink" width="400" height="400" viewBox="0, 0, 400,400"><g id="svgg"><path id="path0" d="M125.200 49.994 L 125.200 74.789 137.700 74.894 L 150.200 75.000 150.200 87.600 L 150.200 100.200 125.300 100.303 L 100.400 100.406 100.400 112.603 L 100.400 124.800 119.134 124.800 C 129.438 124.800,146.268 124.919,156.534 125.065 L 175.200 125.331 175.200 137.671 L 175.200 150.012 187.500 149.906 L 199.800 149.800 199.906 137.565 L 200.011 125.330 218.671 125.065 C 228.934 124.919,251.342 124.800,268.466 124.800 L 299.600 124.800 299.600 112.602 L 299.600 100.404 262.300 100.302 L 225.000 100.200 224.894 87.706 L 224.789 75.211 212.294 75.106 L 199.800 75.000 199.694 62.706 L 199.588 50.412 187.294 50.306 L 175.000 50.200 174.894 37.700 L 174.789 25.200 149.994 25.200 L 125.200 25.200 125.200 49.994 M75.200 137.600 L 75.200 150.000 87.600 150.000 L 100.000 150.000 100.000 137.600 L 100.000 125.200 87.600 125.200 L 75.200 125.200 75.200 137.600 M300.094 137.500 L 300.200 149.800 312.500 149.906 L 324.800 150.012 324.800 137.606 L 324.800 125.200 312.394 125.200 L 299.988 125.200 300.094 137.500 M50.400 162.600 L 50.400 174.800 62.600 174.800 L 74.800 174.800 74.800 162.600 L 74.800 150.400 62.600 150.400 L 50.400 150.400 50.400 162.600 M325.200 162.600 L 325.200 174.800 337.400 174.800 L 349.600 174.800 349.600 162.600 L 349.600 150.400 337.400 150.400 L 325.200 150.400 325.200 162.600 M25.200 237.400 L 25.200 299.600 37.600 299.600 L 50.000 299.600 50.000 237.400 L 50.000 175.200 37.600 175.200 L 25.200 175.200 25.200 237.400 M350.000 237.400 L 350.000 299.600 362.400 299.600 L 374.800 299.600 374.800 237.400 L 374.800 175.200 362.400 175.200 L 350.000 175.200 350.000 237.400 M50.400 312.394 L 50.400 324.800 62.800 324.800 L 75.200 324.800 75.200 337.200 L 75.200 349.600 87.606 349.600 L 100.012 349.600 99.906 337.300 L 99.800 325.000 87.506 324.894 L 75.212 324.788 75.106 312.494 L 75.000 300.200 62.700 300.094 L 50.400 299.988 50.400 312.394 M325.067 300.267 C 324.920 300.413,324.800 305.991,324.800 312.661 L 324.800 324.788 312.500 324.894 L 300.200 325.000 300.094 337.300 L 299.988 349.600 312.394 349.600 L 324.800 349.600 324.800 337.200 L 324.800 324.800 337.200 324.800 L 349.600 324.800 349.600 312.400 L 349.600 300.000 337.467 300.000 C 330.793 300.000,325.213 300.120,325.067 300.267 M100.400 362.400 L 100.400 374.800 200.000 374.800 L 299.600 374.800 299.600 362.400 L 299.600 350.000 200.000 350.000 L 100.400 350.000 100.400 362.400 " stroke="none" fill="#2c1f2c" fill-rule="evenodd"></path><path id="path1" d="M124.800 12.400 L 124.800 24.800 112.200 24.800 L 99.600 24.800 99.600 62.200 L 99.600 99.600 87.200 99.600 L 74.800 99.600 74.800 112.200 L 74.800 124.800 62.200 124.800 L 49.600 124.800 49.600 137.200 L 49.600 149.600 37.200 149.600 L 24.800 149.600 24.800 162.200 L 24.800 174.800 12.400 174.800 L 0.000 174.800 0.000 237.600 L 0.000 300.400 12.400 300.400 L 24.800 300.400 24.800 312.800 L 24.800 325.200 37.200 325.200 L 49.600 325.200 49.600 337.800 L 49.600 350.400 62.200 350.400 L 74.800 350.400 74.800 362.800 L 74.800 375.200 87.200 375.200 L 99.600 375.200 99.600 387.600 L 99.600 400.000 200.000 400.000 L 300.400 400.000 300.400 387.600 L 300.400 375.200 312.800 375.200 L 325.200 375.200 325.200 362.800 L 325.200 350.400 337.800 350.400 L 350.400 350.400 350.400 337.800 L 350.400 325.200 362.800 325.200 L 375.200 325.200 375.200 312.800 L 375.200 300.400 387.600 300.400 L 400.000 300.400 400.000 237.600 L 400.000 174.800 387.600 174.800 L 375.200 174.800 375.200 162.200 L 375.200 149.600 362.800 149.600 L 350.400 149.600 350.400 137.200 L 350.400 124.800 337.800 124.800 L 325.200 124.800 325.200 112.200 L 325.200 99.600 312.800 99.600 L 300.400 99.600 300.400 87.200 L 300.400 74.800 262.800 74.800 L 225.200 74.800 225.200 62.200 L 225.200 49.600 212.800 49.600 L 200.400 49.600 200.400 37.200 L 200.400 24.800 187.800 24.800 L 175.200 24.800 175.200 12.400 L 175.200 0.000 150.000 0.000 L 124.800 0.000 124.800 12.400 M175.200 37.400 L 175.200 50.000 187.600 50.000 L 200.000 50.000 200.000 62.400 L 200.000 74.800 212.600 74.800 L 225.200 74.800 225.200 87.400 L 225.200 100.000 262.600 100.000 L 300.000 100.000 300.000 112.400 L 300.000 124.800 312.600 124.800 L 325.200 124.800 325.200 137.400 L 325.200 150.000 337.600 150.000 L 350.000 150.000 350.000 162.400 L 350.000 174.800 362.600 174.800 L 375.200 174.800 375.200 237.394 L 375.200 299.989 362.700 300.094 L 350.200 300.200 350.094 312.700 L 349.989 325.200 337.594 325.200 L 325.200 325.200 325.200 337.594 L 325.200 349.989 312.700 350.094 L 300.200 350.200 300.094 362.700 L 299.989 375.200 200.000 375.200 L 100.011 375.200 99.906 362.700 L 99.800 350.200 87.300 350.094 L 74.800 349.989 74.800 337.594 L 74.800 325.200 62.406 325.200 L 50.011 325.200 49.906 312.700 L 49.800 300.200 37.300 300.094 L 24.800 299.989 24.800 237.394 L 24.800 174.800 37.400 174.800 L 50.000 174.800 50.000 162.400 L 50.000 150.000 62.400 150.000 L 74.800 150.000 74.800 137.400 L 74.800 124.800 87.400 124.800 L 100.000 124.800 100.000 112.403 L 100.000 100.006 124.900 99.903 L 149.800 99.800 149.906 87.506 L 150.012 75.211 137.506 75.106 L 125.000 75.000 124.897 49.900 L 124.794 24.800 149.997 24.800 L 175.200 24.800 175.200 37.400 " stroke="none" fill="#f4fcfc" fill-rule="evenodd"></path><path id="path2" d="M175.062 50.100 C 175.164 50.265,180.727 50.400,187.424 50.400 L 199.600 50.400 199.600 62.576 C 199.600 69.273,199.735 74.836,199.900 74.938 C 200.065 75.041,200.150 69.476,200.089 62.573 L 199.978 50.022 187.427 49.911 C 180.524 49.850,174.959 49.935,175.062 50.100 M149.911 87.420 L 150.022 100.000 125.011 100.000 L 100.000 100.000 100.000 112.600 L 100.000 125.200 124.994 125.200 L 149.988 125.200 150.094 137.500 L 150.200 149.800 162.700 149.906 L 175.200 150.011 175.200 162.406 L 175.200 174.800 187.600 174.800 L 200.000 174.800 200.000 162.400 L 200.000 150.000 212.400 150.000 L 224.800 150.000 224.800 137.600 L 224.800 125.200 262.400 125.200 L 300.000 125.200 300.000 112.604 L 300.000 100.008 262.438 99.904 C 241.779 99.847,224.960 99.935,225.062 100.100 C 225.164 100.265,241.977 100.400,262.424 100.400 L 299.600 100.400 299.600 112.600 L 299.600 124.800 268.466 124.800 C 251.342 124.800,228.934 124.919,218.671 125.065 L 200.011 125.330 199.906 137.565 L 199.800 149.800 187.500 149.906 L 175.200 150.012 175.200 137.671 L 175.200 125.331 156.534 125.065 C 146.268 124.919,129.438 124.800,119.134 124.800 L 100.400 124.800 100.400 112.603 L 100.400 100.406 125.300 100.303 L 150.200 100.200 150.306 87.826 C 150.364 81.020,150.274 75.314,150.106 75.145 C 149.938 74.977,149.850 80.500,149.911 87.420 M50.000 162.606 L 50.000 175.211 62.500 175.106 L 75.000 175.000 75.106 162.500 L 75.211 150.000 62.606 150.000 L 50.000 150.000 50.000 162.606 M324.894 162.500 L 325.000 175.000 337.500 175.106 L 350.000 175.211 350.000 162.606 L 350.000 150.000 337.394 150.000 L 324.789 150.000 324.894 162.500 M74.800 162.600 L 74.800 174.800 62.600 174.800 L 50.400 174.800 50.400 162.600 L 50.400 150.400 62.600 150.400 L 74.800 150.400 74.800 162.600 M349.600 162.600 L 349.600 174.800 337.400 174.800 L 325.200 174.800 325.200 162.600 L 325.200 150.400 337.400 150.400 L 349.600 150.400 349.600 162.600 M50.000 287.294 L 50.000 299.589 37.500 299.700 L 25.000 299.812 37.494 299.906 L 49.989 300.000 50.100 312.500 L 50.212 325.000 50.306 312.494 L 50.400 299.988 62.700 300.094 L 75.000 300.200 75.000 312.600 L 75.000 325.000 87.400 325.000 L 99.800 325.000 99.906 337.294 L 100.012 349.589 87.506 349.700 L 75.000 349.812 87.494 349.906 L 99.989 350.000 100.100 362.500 L 100.212 375.000 100.306 362.500 L 100.400 350.000 125.300 350.000 L 150.200 350.000 150.089 337.603 L 149.978 325.206 125.089 325.103 L 100.200 325.000 100.094 312.506 L 99.989 300.011 87.494 299.906 L 75.000 299.800 74.894 287.511 L 74.788 275.222 62.394 275.111 L 50.000 275.000 50.000 287.294 M337.506 275.106 L 325.212 275.212 325.106 287.506 L 325.000 299.800 312.506 299.906 L 300.011 300.011 299.906 312.506 L 299.800 325.000 274.911 325.103 L 250.022 325.206 249.911 337.603 L 249.800 350.000 274.694 350.000 L 299.589 350.000 299.700 362.500 L 299.812 375.000 299.906 362.506 L 300.000 350.011 312.500 349.900 L 325.000 349.788 312.494 349.694 L 299.988 349.600 300.094 337.300 L 300.200 325.000 312.600 325.000 L 325.000 325.000 325.000 312.600 L 325.000 300.200 337.294 300.094 L 349.589 299.988 349.700 312.494 L 349.812 325.000 349.906 312.506 L 350.000 300.011 362.500 299.900 L 375.000 299.788 362.506 299.694 L 350.011 299.600 349.906 287.300 L 349.800 275.000 337.506 275.106 " stroke="none" fill="#346c6c" fill-rule="evenodd"></path><path id="path3" d="M124.985 25.297 C 124.879 25.574,124.839 36.870,124.896 50.400 L 125.000 75.000 137.200 75.009 L 149.400 75.017 137.300 74.903 L 125.200 74.788 125.200 49.994 L 125.200 25.200 149.994 25.200 L 174.788 25.200 174.903 37.500 L 175.018 49.800 175.009 37.400 L 175.000 25.000 150.089 24.897 C 130.372 24.815,125.137 24.899,124.985 25.297 M212.494 75.097 L 224.788 75.212 224.903 87.506 L 225.018 99.800 225.009 87.400 L 225.000 75.000 212.600 74.991 L 200.200 74.982 212.494 75.097 M74.979 125.233 C 74.833 125.471,74.777 136.766,74.856 150.333 L 75.000 175.000 50.000 175.000 L 25.000 175.000 24.998 237.400 L 24.996 299.800 25.099 237.500 L 25.203 175.200 37.600 175.200 L 49.997 175.200 50.098 225.100 L 50.200 275.000 62.494 275.106 L 74.788 275.212 74.894 287.506 L 75.000 299.800 87.494 299.906 L 99.989 300.011 100.094 312.506 L 100.200 325.000 125.094 325.103 L 149.988 325.206 150.094 337.503 L 150.200 349.800 200.000 349.800 L 249.800 349.800 249.906 337.503 L 250.012 325.206 274.906 325.103 L 299.800 325.000 299.906 312.506 L 300.011 300.011 312.506 299.906 L 325.000 299.800 325.106 287.506 L 325.212 275.212 337.506 275.106 L 349.800 275.000 349.902 225.100 L 350.003 175.200 362.400 175.200 L 374.797 175.200 374.901 237.500 L 375.004 299.800 375.002 237.400 L 375.000 175.000 350.000 175.000 L 325.000 175.000 325.000 150.000 L 325.000 125.000 312.500 125.003 C 305.625 125.005,283.057 125.050,262.350 125.103 L 224.699 125.200 224.996 149.948 C 225.226 169.103,225.184 174.763,224.811 174.993 C 224.545 175.157,213.277 175.158,199.770 174.995 L 175.211 174.698 175.100 162.249 L 174.988 149.800 174.894 162.506 L 174.800 175.212 162.500 175.106 L 150.200 175.000 150.102 150.235 C 150.048 136.615,149.958 125.435,149.902 125.391 C 149.441 125.031,75.201 124.875,74.979 125.233 M100.000 137.594 L 100.000 149.989 112.500 150.094 L 125.000 150.200 125.000 162.600 L 125.000 175.000 112.500 175.106 L 100.000 175.211 100.000 212.611 L 100.000 250.011 87.500 249.906 L 75.000 249.800 75.000 212.400 L 75.000 175.000 87.500 174.894 L 100.000 174.789 100.000 162.394 L 100.000 150.000 87.600 150.000 L 75.200 150.000 75.200 137.600 L 75.200 125.200 87.600 125.200 L 100.000 125.200 100.000 137.594 M324.800 137.600 L 324.800 150.000 312.400 150.000 L 300.000 150.000 300.000 162.394 L 300.000 174.789 312.500 174.894 L 325.000 175.000 325.000 212.400 L 325.000 249.800 312.500 249.906 L 300.000 250.011 300.000 212.611 L 300.000 175.211 287.500 175.106 L 275.000 175.000 275.000 162.600 L 275.000 150.200 287.500 150.094 L 300.000 149.989 300.000 137.594 L 300.000 125.200 312.400 125.200 L 324.800 125.200 324.800 137.600 M200.000 187.606 L 200.000 200.011 187.500 199.906 L 175.000 199.800 174.894 187.500 L 174.788 175.200 187.394 175.200 L 200.000 175.200 200.000 187.606 M62.494 325.097 L 74.788 325.212 74.903 337.506 L 75.018 349.800 75.009 337.400 L 75.000 325.000 62.600 324.991 L 50.200 324.982 62.494 325.097 M324.981 325.304 C 324.875 325.582,324.838 331.207,324.900 337.804 L 325.012 349.800 325.106 337.506 L 325.200 325.212 337.500 325.100 L 349.800 324.988 337.487 324.894 C 327.880 324.821,325.132 324.911,324.981 325.304 M150.100 375.100 C 177.545 375.157,222.455 375.157,249.900 375.100 C 277.345 375.043,254.890 374.997,200.000 374.997 C 145.110 374.997,122.655 375.043,150.100 375.100 " stroke="none" fill="#4cac5c" fill-rule="evenodd"></path><path id="path4" d="M100.000 162.389 L 100.000 174.789 87.500 174.894 L 75.000 175.000 75.000 212.400 L 75.000 249.800 87.500 249.906 L 100.000 250.011 100.000 212.611 L 100.000 175.211 112.500 175.106 L 125.000 175.000 125.000 162.600 L 125.000 150.200 112.500 150.094 L 100.000 149.989 100.000 162.389 M150.181 150.504 C 150.075 150.782,150.036 156.407,150.094 163.004 L 150.200 175.000 162.494 175.106 L 174.788 175.212 174.894 187.506 L 175.000 199.800 187.500 199.906 L 200.000 200.011 200.000 187.606 L 200.000 175.200 187.400 175.200 L 174.800 175.200 174.800 162.600 L 174.800 150.000 162.587 150.000 C 153.130 150.000,150.331 150.114,150.181 150.504 M200.184 150.499 C 200.076 150.779,200.036 156.407,200.094 163.004 L 200.200 175.000 212.600 175.000 L 225.000 175.000 225.000 162.600 L 225.000 150.200 212.690 150.094 C 203.002 150.011,200.338 150.097,200.184 150.499 M274.981 150.504 C 274.875 150.782,274.836 156.407,274.894 163.004 L 275.000 175.000 287.500 175.106 L 300.000 175.211 300.000 212.611 L 300.000 250.011 312.500 249.906 L 325.000 249.800 325.000 212.400 L 325.000 175.000 312.500 174.894 L 300.000 174.789 300.000 162.394 L 300.000 150.000 287.587 150.000 C 277.969 150.000,275.131 150.114,274.981 150.504 " stroke="none" fill="#acc454" fill-rule="evenodd"></path></g></svg>