<?xml version="1.0" standalone="no"?>
<!DOCTYPE svg PUBLIC "-//W3C//DTD SVG 20010904//EN"
 "http://www.w3.org/TR/2001/REC-SVG-20010904/DTD/svg10.dtd">
<svg version="1.0" xmlns="http://www.w3.org/2000/svg"
 width="512.000000pt" height="512.000000pt" viewBox="0 0 512.000000 512.000000"
 preserveAspectRatio="xMidYMid meet">
<metadata>
Created by potrace 1.11, written by Peter Selinger 2001-2013
</metadata>
<g transform="translate(0.000000,512.000000) scale(0.100000,-0.100000)"
fill="#000000" stroke="none">
<path d="M4722 5003 c-65 -65 -125 -124 -134 -131 -13 -10 -33 -9 -108 4 -177
30 -393 17 -531 -31 -212 -75 -404 -352 -421 -607 -2 -29 -13 -49 -51 -90
-252 -270 -275 -299 -335 -417 -79 -152 -110 -280 -110 -461 0 -152 29 -283
94 -425 59 -128 122 -204 428 -512 173 -174 307 -317 314 -335 28 -66 -10
-158 -78 -193 -40 -20 -99 -21 -135 -2 -17 8 -441 426 -943 929 -502 502 -939
932 -972 956 -240 175 -544 231 -828 152 -277 -77 -521 -304 -620 -575 -93
-254 -72 -543 54 -774 72 -132 54 -112 644 -711 730 -741 750 -761 759 -794
23 -87 -30 -176 -114 -190 -74 -13 -95 3 -344 251 -245 245 -312 303 -396 340
-114 49 -178 62 -290 58 -114 -4 -145 -10 -226 -44 -91 -38 -162 -88 -247
-173 l-72 -73 467 -465 c447 -445 507 -501 577 -544 165 -101 331 -145 529
-141 67 2 136 6 152 10 17 4 35 8 40 9 308 67 583 321 678 626 37 121 41 149
41 300 -1 105 -5 153 -22 219 -55 210 -122 310 -406 598 -121 124 -283 289
-360 366 -76 78 -266 271 -422 430 -157 158 -289 300 -295 315 -15 38 -13 95
5 130 31 61 119 90 189 63 15 -6 443 -427 952 -935 1005 -1005 1007 -1007
1186 -1076 155 -60 339 -80 504 -56 77 12 230 65 292 102 30 19 57 34 60 34
12 0 125 95 179 152 243 250 327 617 218 952 -24 75 -80 182 -132 255 -25 35
-176 195 -335 355 -342 343 -348 352 -312 472 12 41 32 67 124 158 l109 108
71 4 c185 9 382 102 517 246 80 84 121 177 148 332 18 107 10 317 -16 424 -6
23 -8 46 -4 50 3 4 63 64 132 133 l126 126 -106 107 -106 106 -118 -117z"/>
</g>
</svg>
